<?xml version="1.0"?><svg viewBox="0 0 128 128" xmlns="http://www.w3.org/2000/svg"><defs><style>.cls-1{fill:#d2423f;}.cls-2{fill:#dd6966;}.cls-3{fill:#ba3b38;}.cls-4{fill:#333;}.cls-5{fill:#4d4d4d;}.cls-6{fill:#1f1f1f;}.cls-7{fill:#f2f2f2;}</style></defs><title/><g data-name="07 Note Book" id="_07_Note_Book"><rect class="cls-1" height="96" rx="6" ry="6" width="77" x="25.5" y="16"/><path class="cls-2" d="M27.24,23.74a6,6,0,0,1,6-6c70.87,0,66.16-.4,68.28,1a6,6,0,0,0-5-2.72h-65a6,6,0,0,0-6,6v84a6,6,0,0,0,2.72,5C26.82,108.89,27.24,114.22,27.24,23.74Z"/><path class="cls-3" d="M95.94,16a6,6,0,0,1,.55,2.5v84a6,6,0,0,1-6,6H45.44a2.38,2.38,0,0,1-2.37-2.27l-2-45.4V108.5H26A6,6,0,0,0,31.5,112h65a6,6,0,0,0,6-6V22C102.5,19,100.31,16,95.94,16Z"/><path class="cls-4" d="M31.5,16h9.55a0,0,0,0,1,0,0v96a0,0,0,0,1,0,0H31.5a6,6,0,0,1-6-6V22A6,6,0,0,1,31.5,16Z"/><path class="cls-5" d="M28.22,111c-1.4-2.14-1,3.2-1-87.28a6,6,0,0,1,6-6h7.81V16H31.5a6,6,0,0,0-6,6v84A6,6,0,0,0,28.22,111Z"/><path class="cls-6" d="M26,108.5h0A6,6,0,0,0,31.5,112h9.55v-7C39.73,109.4,40.92,108.5,26,108.5Z"/><path class="cls-3" d="M53.53,53V36.71A3.73,3.73,0,0,1,57.26,33H85.69a3.73,3.73,0,0,1,3.73,3.73V53a3.73,3.73,0,0,1-3.73,3.73H57.26A3.73,3.73,0,0,1,53.53,53ZM86.74,85.53H56.21a2,2,0,0,0,0,4H86.74A2,2,0,0,0,86.74,85.53Zm-2.51,9.18H58.71a2,2,0,0,0,0,4H84.23A2,2,0,0,0,84.23,94.71Z"/><rect class="cls-7" height="23.74" rx="3.73" ry="3.73" width="35.9" x="52.55" y="32"/><path class="cls-7" d="M85.77,88.56H55.23a2,2,0,0,1,0-4H85.77A2,2,0,0,1,85.77,88.56Z"/><path class="cls-7" d="M83.26,97.73H57.74a2,2,0,0,1,0-4H83.26A2,2,0,0,1,83.26,97.73Z"/></g></svg>